<?xml version="1.0" encoding="utf-8"?>
<!-- Generator: Adobe Illustrator 18.1.1, SVG Export Plug-In . SVG Version: 6.00 Build 0)  -->
<svg version="1.1" xmlns="http://www.w3.org/2000/svg" xmlns:xlink="http://www.w3.org/1999/xlink" x="0px" y="0px"
	 viewBox="0 0 76 78" enable-background="new 0 0 76 78" xml:space="preserve">
<g id="Layer_1" display="none">
	<text transform="matrix(1 0 0 1 -175.4445 73.2094)" display="inline"><tspan x="0" y="0" fill="#79D0EA" font-family="'Avenir-Light'" font-size="137" letter-spacing="-1">s</tspan><tspan x="56.6" y="0" fill="#79D0EA" font-family="'Avenir-Light'" font-size="137">e</tspan><tspan x="131.9" y="0" fill="#79D0EA" font-family="'Avenir-Light'" font-size="137">r  </tspan><tspan x="248.8" y="0" fill="#79D0EA" font-family="'Avenir-Light'" font-size="137" letter-spacing="-7">p</tspan><tspan x="324.8" y="0" fill="#79D0EA" font-family="'Avenir-Light'" font-size="137">h</tspan></text>
</g>
<g id="Layer_2" display="none">
</g>
<g id="Layer_3">
	<g>
		<g>
			<g>
				<path opacity="0.4" fill="#79D0EA" d="M59.3,0c0,0,5.9,36.8-21.2,43.4C10.9,50,21.9,70.3,37,69.9c0,0-1.7,2.9-2.1,2.9
					s-21.8-9.5-22-10.1S6.4,39.2,6.4,39.2L17,19.7l29.6-8.4c0,0,11.5-5,12.7-11.2"/>
				<path opacity="0.2" fill="#79D0EA" d="M40.9,42.5c0,0-23.3,21.5,0.9,27.2c0,0-3.8,3.2-13.7-1.8C18.3,63,16.7,46.9,40.9,42.5z"/>
				<path opacity="0.25" fill="#00AEEF" d="M59.3,0c0,0,3.3,23.2-22.5,28.2C11,33.2,9.2,61.8,28.2,68c0,0-8.3,3.7-16.7-10.6
					C3,43.2,17.5,16.3,40.7,11.8C63.8,7.3,56.9,4.7,59.4,0.3"/>
				<g>
					<path fill="#79D0EA" d="M15.4,29c-2.4,4.3-3.6,8.8-3.6,13.6c0,4.8,1.2,9.3,3.7,13.6c2.4,4.3,5.7,7.7,9.8,10.1
						c4.1,2.4,8.5,3.6,13.2,3.6c4.7,0,9.2-1.2,13.5-3.6c4.3-2.4,7.5-5.6,9.8-9.7c2.3-4.1,3.4-8.7,3.4-13.8L64.7,8.8h8.6v67.5h-8.6
						V64.6c-3.6,4.4-7.7,7.8-12.2,10c-4.5,2.2-9.5,3.3-14.9,3.3c-9.5,0-17.7-3.5-24.5-10.4C6.4,60.6,3,52.2,3,42.3
						c0-9.7,3.4-18,10.2-24.9"/>
				</g>
				<path fill="#79D0EA" d="M11.7,46.5c0,0-4.7-18.7,22.7-27c27.3-8.3,25-17.3,25-19.5c0,0,0,4.2-26.7,7.3c0,0-23.8,1.8-28,28
					C0.5,61.5,11.7,46.5,11.7,46.5z"/>
			</g>
			<polygon display="none" fill="#79D0EA" points="64.6,8.8 74.6,8.8 76.2,76.5 64.6,76.1 			"/>
		</g>
	</g>
</g>
</svg>
