<?xml version="1.0" encoding="utf-8"?>
<!-- Generator: Adobe Illustrator 18.1.1, SVG Export Plug-In . SVG Version: 6.00 Build 0)  -->
<svg version="1.1" id="Layer_1" xmlns="http://www.w3.org/2000/svg" xmlns:xlink="http://www.w3.org/1999/xlink" x="0px" y="0px"
	 viewBox="0 0 38.8 40.5" enable-background="new 0 0 38.8 40.5" xml:space="preserve">
<g>
	<g>
		<path fill="#faebd7" d="M8,15.5c-1.2,2.1-1.8,4.3-1.8,6.6c0,2.3,0.6,4.5,1.8,6.6c1.2,2.1,2.8,3.7,4.8,4.9c2,1.2,4.1,1.8,6.4,1.8
			c2.3,0,4.5-0.6,6.5-1.7c2.1-1.2,3.6-2.7,4.8-4.7c1.1-2,1.7-4.2,1.7-6.7L31.8,5.7H36v32.7h-4.2v-5.6c-1.8,2.1-3.7,3.8-5.9,4.8
			c-2.2,1.1-4.6,1.6-7.2,1.6c-4.6,0-8.6-1.7-11.9-5C3.6,30.9,1.9,26.8,1.9,22c0-4.7,1.7-8.7,5-12.1"/>
	</g>
	<path opacity="0.4" fill="#faebd7" d="M29.3,1.5c0,0,2.9,17.8-10.3,21c-13.2,3.2-7.9,13-0.5,12.9c0,0-0.8,1.4-1,1.4
		S6.9,32.2,6.8,31.9c-0.1-0.3-3.2-11.4-3.2-11.4L8.8,11L23.1,7c0,0,5.6-2.7,6.2-5.7"/>
	<path opacity="0.2" fill="#faebd7" d="M20.3,22.1c0,0-11.3,10.4,0.4,13.2c0,0-1.9,1.6-6.6-0.9C9.4,32,8.6,24.2,20.3,22.1z"/>
	<path opacity="0.6" fill="#faebd7" d="M29.3,1.5c0,0,1.6,11.2-10.9,13.7C5.8,17.6,4.9,31.5,14.1,34.5c0,0-4,1.8-8.1-5.1
		C1.9,22.4,9,9.4,20.2,7.2c11.2-2.2,7.9-3.5,9.1-5.6"/>
	<path fill="#faebd7" d="M6.1,24c0,0-2.3-9.1,11-13.1c13.3-4,12.1-8.4,12.1-9.5c0,0,0,2-12.9,3.6c0,0-11.5,0.9-13.6,13.6
		C0.7,31.3,6.1,24,6.1,24z"/>
</g>
<polygon fill="#faebd7" points="31.8,5.7 36.6,5.7 37.5,38.6 31.8,38.4 "/>
</svg>
