<?xml version="1.0" encoding="utf-8"?>
<!-- Generator: Adobe Illustrator 18.1.1, SVG Export Plug-In . SVG Version: 6.00 Build 0)  -->
<svg version="1.1" id="Layer_1" xmlns="http://www.w3.org/2000/svg" xmlns:xlink="http://www.w3.org/1999/xlink" x="0px" y="0px"
	 viewBox="0 0 194.5 67.5" enable-background="new 0 0 194.5 67.5" xml:space="preserve">
<g>
	<g>
		<g>
			<g>
				<path fill="#faebd7" d="M93.1,29.1c-1.2,2.1-1.8,4.3-1.8,6.6c0,2.3,0.6,4.5,1.8,6.6c1.2,2.1,2.8,3.7,4.8,4.9
					c2,1.2,4.1,1.8,6.4,1.8c2.3,0,4.5-0.6,6.5-1.7c2.1-1.2,3.6-2.7,4.8-4.7c1.1-2,1.7-4.2,1.7-6.7L117,19.3h4.2v32.7H117v-5.6
					c-1.8,2.1-3.7,3.8-5.9,4.8c-2.2,1.1-4.6,1.6-7.2,1.6c-4.6,0-8.6-1.7-11.9-5c-3.3-3.4-4.9-7.4-4.9-12.3c0-4.7,1.7-8.7,5-12.1"/>
			</g>
			<path opacity="0.4" fill="#faebd7" d="M114.5,15.1c0,0,2.9,17.8-10.3,21c-13.2,3.2-7.9,13-0.5,12.9c0,0-0.8,1.4-1,1.4
				s-10.5-4.6-10.7-4.9c-0.1-0.3-3.2-11.4-3.2-11.4l5.2-9.5l14.4-4.1c0,0,5.6-2.7,6.2-5.7"/>
			<path opacity="0.2" fill="#faebd7" d="M105.5,35.7c0,0-11.3,10.4,0.4,13.2c0,0-1.9,1.6-6.6-0.9C94.6,45.7,93.8,37.8,105.5,35.7z"
				/>
			<path opacity="0.6" fill="#faebd7" d="M114.5,15.1c0,0,1.6,11.2-10.9,13.7C91,31.2,90.1,45.1,99.3,48.1c0,0-4,1.8-8.1-5.1
				C87.1,36,94.2,23,105.4,20.8c11.2-2.2,7.9-3.5,9.1-5.6"/>
			<path fill="#faebd7" d="M91.3,37.7c0,0-2.3-9.1,11-13.1c13.3-4,12.1-8.4,12.1-9.5c0,0,0,2-12.9,3.6c0,0-11.5,0.9-13.6,13.6
				C85.9,44.9,91.3,37.7,91.3,37.7z"/>
		</g>
		<polygon fill="#faebd7" points="117,19.3 121.8,19.3 122.7,52.2 117,52 		"/>
		<g>
			<path fill="#faebd7" d="M6.2,42.4c2.1,2.5,4.3,4.2,8,4.2c3.3,0,6.8-1.4,6.8-4.8c0-3.3-3.3-4.2-6.6-4.9c-5.9-1.3-11-2.6-11-9
				c0-6,5.8-9.2,11.6-9.2c4.4,0,8.4,1.7,10.6,5.6l-4.3,2.9c-1.3-2.2-3.5-3.7-6.6-3.7c-2.9,0-6.1,1.4-6.1,4.3c0,2.6,3.7,3.7,7.8,4.5
				c5.5,1.1,10.2,3.1,10.2,9.3c0,7-6.2,9.8-12.4,9.8c-5.2,0-9-1.4-12.1-5.8L6.2,42.4z"/>
			<path fill="#faebd7" d="M60.7,45c-3.7,4.7-8,6.4-13.8,6.4c-9.8,0-15.7-7.3-15.7-16.3c0-9.6,6.8-16.3,15.9-16.3
				c8.8,0,14.7,6,14.7,16.3v1.7H36.7c0.4,5.4,4.5,10,10.2,10c4.5,0,7.4-1.6,9.9-4.7L60.7,45z M56.3,32.3c-0.2-5.2-3.7-8.8-9.4-8.8
				c-5.7,0-9.5,3.5-10.2,8.8H56.3z"/>
			<path fill="#faebd7" d="M69.5,26.9c0-2.9-0.3-5.3-0.3-7.4h4.9c0,1.7,0.1,3.4,0.1,5.1h0.1c1.4-3.1,5.2-5.9,10.4-5.9
				c0.7,0,1.4,0.1,2.1,0.3l-0.3,5.2c-0.9-0.3-1.9-0.4-2.8-0.4c-6.3,0-9.1,4.5-9.1,11.6v15.1h-5.2V26.9z"/>
			<path fill="#faebd7" d="M129.6,19.5h5.2V24h0.1c2.9-3.3,6.6-5.3,11.2-5.3c9.8,0,16.3,6.9,16.3,16.3c0,9.3-6.8,16.3-15.5,16.3
				c-5.6,0-10-2.8-12-6.3h-0.1v20.7h-5.2V19.5z M145.8,46.6c6.7,0,11-5,11-11.6c0-6.5-4.3-11.6-11-11.6s-11,5-11,11.6
				C134.7,41.6,139.1,46.6,145.8,46.6z"/>
			<path fill="#faebd7" d="M166.7,0.4h5.2v23.5h0.1c1.4-2.5,5.1-5.1,10-5.1c8.2,0,11.8,5.2,11.8,12.7v19.2h-5.2V31.9
				c0-5.2-2.3-8.4-7.1-8.4c-6.7,0-9.6,4.9-9.6,12v15.1h-5.2V0.4z"/>
		</g>
	</g>
</g>
</svg>
